<svg width="40" height="40" fill="none" xmlns="http://www.w3.org/2000/svg"><path d="M1 20C1 9.507 9.507 1 20 1s19 8.507 19 19-8.507 19-19 19S1 30.493 1 20z" fill="#262626" stroke="#303030" stroke-width="2"/><mask id="a" style="mask-type:luminance" maskUnits="userSpaceOnUse" x="16" y="11" width="9" height="18"><path fill-rule="evenodd" clip-rule="evenodd" d="M21.719 28.4v-7.663h2.48l.368-2.985h-2.848v-1.908c0-.863.23-1.454 1.424-1.454h1.524v-2.673c-.263-.039-1.168-.117-2.217-.117-2.199 0-3.698 1.395-3.698 3.952v2.206h-2.485v2.985h2.485V28.4h2.967z" fill="#fff"/></mask><g mask="url(#a)"><path fill="#737373" d="M7.867 7.867h24.267v24.267H7.867z"/></g></svg>