<svg width="175" height="12" fill="none" xmlns="http://www.w3.org/2000/svg"><path d="M.966 1.004V11h2.198V6.688H7.21V11h2.198V1.004H7.21V4.84H3.164V1.004H.966zm12.477 0V11h7.588V9.152h-5.39v-2.45h4.844V4.994h-4.844V2.852h5.278V1.004h-7.476zm13.698 6.132l1.302-3.668h.028l1.26 3.668h-2.59zm.21-6.132L23.571 11h2.212l.784-2.226h3.738L31.061 11h2.282l-3.738-9.996h-2.254zm8.954 0V11h7.07V9.152h-4.872V1.004h-2.198zM47.63 2.852V11h2.199V2.852h2.996V1.004h-8.19v1.848h2.996zm8.447-1.848V11h2.198V6.688h4.046V11h2.198V1.004h-2.198V4.84h-4.046V1.004h-2.198zm15.067 6.104V11h2.198V7.164l3.71-6.16h-2.45l-2.324 3.948-2.338-3.948h-2.464l3.668 6.104zm16.343.574h-2.128c-.01.616.102 1.148.336 1.596.233.448.546.817.938 1.106.401.29.858.5 1.372.63a6.19 6.19 0 001.61.21c.681 0 1.278-.08 1.792-.238.522-.159.956-.378 1.302-.658a2.8 2.8 0 00.798-1.022 3.06 3.06 0 00.266-1.274c0-.56-.122-1.017-.364-1.372a2.877 2.877 0 00-.84-.868 3.533 3.533 0 00-.994-.462 7.95 7.95 0 00-.77-.21 271.08 271.08 0 01-1.526-.392 5.973 5.973 0 01-.91-.308c-.215-.103-.36-.215-.434-.336a.898.898 0 01-.112-.476.94.94 0 01.14-.532c.093-.14.21-.257.35-.35a1.49 1.49 0 01.49-.196c.177-.037.354-.056.532-.056.27 0 .518.023.742.07.233.047.438.126.616.238.177.112.317.266.42.462.112.196.177.443.196.742h2.128c0-.579-.112-1.069-.336-1.47a2.788 2.788 0 00-.882-1.008 3.654 3.654 0 00-1.288-.56 6.043 6.043 0 00-1.498-.182c-.448 0-.896.06-1.344.182-.448.121-.85.308-1.204.56-.355.252-.644.57-.868.952-.215.373-.322.817-.322 1.33 0 .457.084.85.252 1.176.177.317.406.583.686.798.28.215.597.392.952.532.354.13.718.243 1.092.336.364.103.723.196 1.078.28.354.084.672.182.952.294.28.112.504.252.672.42a.865.865 0 01.266.658.996.996 0 01-.196.63 1.41 1.41 0 01-.49.378 2.36 2.36 0 01-.63.196 5.095 5.095 0 01-.63.042c-.29 0-.57-.033-.84-.098a2.38 2.38 0 01-.714-.322 1.688 1.688 0 01-.476-.574c-.122-.233-.182-.518-.182-.854zM106.7 11l2.688-9.996h-2.156l-1.638 6.888h-.028l-1.708-6.888H101.8l-1.736 6.804h-.028l-1.582-6.804h-2.197L98.901 11h2.226l1.666-6.804h.028L104.516 11h2.184zm5.801-9.996V11h2.198V1.004h-2.198zm8.441 1.848V11h2.198V2.852h2.996V1.004h-8.19v1.848h2.996zm15.111 1.512h2.128a4.04 4.04 0 00-.476-1.54 3.62 3.62 0 00-.966-1.12 4.06 4.06 0 00-1.316-.7 4.977 4.977 0 00-1.554-.238c-.766 0-1.456.135-2.072.406a4.43 4.43 0 00-1.54 1.12 4.981 4.981 0 00-.966 1.68 6.185 6.185 0 00-.336 2.072c0 .728.112 1.41.336 2.044.224.625.546 1.171.966 1.638.42.467.933.835 1.54 1.106.616.261 1.306.392 2.072.392.616 0 1.18-.093 1.694-.28a3.934 3.934 0 001.344-.812c.382-.355.69-.784.924-1.288a5.09 5.09 0 00.434-1.694h-2.128c-.084.672-.318 1.213-.7 1.624-.374.41-.896.616-1.568.616-.495 0-.915-.093-1.26-.28a2.456 2.456 0 01-.84-.77 3.413 3.413 0 01-.476-1.064 5.692 5.692 0 010-2.506c.102-.41.261-.775.476-1.092.214-.327.494-.583.84-.77.345-.196.765-.294 1.26-.294.27 0 .527.047.77.14a2.126 2.126 0 011.162.924c.13.205.214.434.252.686zm5.813-3.36V11h2.198V6.688h4.046V11h2.198V1.004h-2.198V4.84h-4.046V1.004h-2.198zm12.477 0V11h7.588V9.152h-5.39v-2.45h4.844V4.994h-4.844V2.852h5.278V1.004h-7.476zm13.376 4.522V2.712h2.408c.504 0 .882.112 1.134.336.252.215.378.565.378 1.05 0 .504-.126.868-.378 1.092-.252.224-.63.336-1.134.336h-2.408zm-2.198-4.522V11h2.198V7.094h2.198c.55 0 .947.121 1.19.364.242.243.401.625.476 1.148.056.401.098.821.126 1.26.028.439.102.817.224 1.134h2.198a1.57 1.57 0 01-.238-.504 6.498 6.498 0 01-.112-.644 15.44 15.44 0 01-.042-.658c-.01-.215-.019-.401-.028-.56a5.326 5.326 0 00-.112-.756 2.304 2.304 0 00-.238-.686 1.788 1.788 0 00-.434-.546 1.655 1.655 0 00-.672-.35v-.028c.56-.224.961-.55 1.204-.98.252-.43.378-.938.378-1.526 0-.383-.07-.737-.21-1.064a2.45 2.45 0 00-.588-.882 2.614 2.614 0 00-.924-.588 3.078 3.078 0 00-1.204-.224h-5.39z" fill="#34C759"/></svg>