<svg width="40" height="40" fill="none" xmlns="http://www.w3.org/2000/svg"><mask id="a" style="mask-type:luminance" maskUnits="userSpaceOnUse" x="13" y="13" width="14" height="14"><path fill-rule="evenodd" clip-rule="evenodd" d="M26.4 19.2h-9.736l4.472-4.472L20 13.6 13.6 20l6.4 6.4 1.128-1.128-4.464-4.472H26.4v-1.6z" fill="#fff"/></mask><g mask="url(#a)"><path fill="#fff" d="M9.6 9.6h20.8v20.8H9.6z"/></g><mask id="b" style="mask-type:luminance" maskUnits="userSpaceOnUse" x="0" y="0" width="40" height="40"><path fill-rule="evenodd" clip-rule="evenodd" d="M20 0C8.954 0 0 8.954 0 20s8.954 20 20 20 20-8.954 20-20S31.046 0 20 0z" fill="#fff"/></mask><g mask="url(#b)"><path opacity=".3" fill-rule="evenodd" clip-rule="evenodd" d="M20 0C8.954 0 0 8.954 0 20s8.954 20 20 20 20-8.954 20-20S31.046 0 20 0z" fill="#000"/></g></svg>