<svg width="40" height="40" fill="none" xmlns="http://www.w3.org/2000/svg"><mask id="a" style="mask-type:luminance" maskUnits="userSpaceOnUse" x="0" y="0" width="40" height="40"><path fill-rule="evenodd" clip-rule="evenodd" d="M20 0C8.954 0 0 8.954 0 20s8.954 20 20 20 20-8.954 20-20S31.046 0 20 0z" fill="#fff"/></mask><g mask="url(#a)"><path opacity=".3" fill="#000" d="M0 0h40v40H0z"/><mask id="b" style="mask-type:luminance" maskUnits="userSpaceOnUse" x="12" y="13" width="16" height="13"><path fill-rule="evenodd" clip-rule="evenodd" d="M21.6 16.8v-3.2l5.6 5.6-5.6 5.6v-3.28c-4 0-6.8 1.28-8.8 4.08.8-4 3.2-8 8.8-8.8z" fill="#fff"/></mask><g mask="url(#b)"><path fill="#fff" d="M9.6 9.6h20.8v20.8H9.6z"/></g></g></svg>