<svg width="40" height="40" fill="none" xmlns="http://www.w3.org/2000/svg"><path d="M1 20C1 9.507 9.507 1 20 1s19 8.507 19 19-8.507 19-19 19S1 30.493 1 20z" fill="#262626" stroke="#303030" stroke-width="2"/><mask id="a" style="mask-type:luminance" maskUnits="userSpaceOnUse" x="11" y="13" width="18" height="15"><path fill-rule="evenodd" clip-rule="evenodd" d="M28.4 15.123a6.709 6.709 0 01-1.98.557 3.533 3.533 0 001.516-1.955c-.666.404-1.403.7-2.188.857a3.406 3.406 0 00-2.517-1.115c-1.904 0-3.446 1.582-3.446 3.533 0 .277.03.548.088.806-2.864-.148-5.404-1.555-7.104-3.693a3.594 3.594 0 00-.466 1.777c0 1.227.608 2.308 1.532 2.942a3.37 3.37 0 01-1.56-.442v.044c0 1.713 1.187 3.142 2.764 3.466a3.39 3.39 0 01-1.556.061c.438 1.404 1.711 2.426 3.22 2.455A6.806 6.806 0 0111.6 25.88a9.589 9.589 0 005.283 1.587c6.34 0 9.807-5.386 9.807-10.056 0-.153-.004-.306-.01-.458a7.094 7.094 0 001.72-1.83z" fill="#fff"/></mask><g mask="url(#a)"><path fill="#737373" d="M7.867 7.867h24.267v24.267H7.867z"/></g></svg>