<svg width="40" height="40" fill="none" xmlns="http://www.w3.org/2000/svg"><path d="M1 20C1 9.507 9.507 1 20 1s19 8.507 19 19-8.507 19-19 19S1 30.493 1 20z" fill="#262626" stroke="#303030" stroke-width="2"/><mask id="a" style="mask-type:luminance" maskUnits="userSpaceOnUse" x="12" y="12" width="16" height="16"><path fill-rule="evenodd" clip-rule="evenodd" d="M27.074 15.107a3.648 3.648 0 00-.86-1.321 3.648 3.648 0 00-1.32-.86c-.474-.185-1.022-.312-1.813-.346l-.013-.001c-.786-.034-1.048-.046-3.068-.046-2.031 0-2.285.006-3.081.047-.797.034-1.339.161-1.812.346-.49.19-.906.444-1.321.86-.416.415-.67.83-.86 1.321-.185.473-.312 1.021-.347 1.812v.013c-.034.786-.046 1.049-.046 3.068 0 2.031.006 2.285.046 3.081.035.797.162 1.34.347 1.812.19.49.444.906.86 1.322.415.415.83.669 1.32.86.474.184 1.022.311 1.813.346h.013c.786.034 1.048.046 3.068.046 2.031 0 2.285-.006 3.081-.046.797-.035 1.339-.162 1.812-.347.49-.19.906-.444 1.322-.86.415-.415.669-.83.86-1.32.184-.474.31-1.022.346-1.813v-.013c.034-.786.046-1.048.046-3.068 0-2.031-.006-2.285-.046-3.081-.035-.797-.162-1.339-.347-1.812zm-1.516 7.65c-.032.665-.143 1.03-.238 1.266a2.114 2.114 0 01-.511.786 2.136 2.136 0 01-.786.512c-.242.095-.6.205-1.265.237l-.034.001c-.696.03-.929.041-2.724.041-1.825 0-2.04-.005-2.758-.042-.664-.032-1.028-.142-1.265-.237a2.113 2.113 0 01-.786-.512 2.136 2.136 0 01-.511-.786c-.095-.242-.206-.6-.238-1.265l-.001-.029c-.03-.7-.041-.934-.041-2.729 0-1.82.005-2.04.042-2.758.032-.664.143-1.028.238-1.265.12-.317.274-.549.511-.786s.464-.385.786-.511c.242-.095.6-.206 1.265-.238l.029-.001c.7-.03.934-.04 2.729-.04 1.82 0 2.04.004 2.758.041.664.032 1.028.143 1.265.238.317.12.549.274.786.511s.385.464.511.786c.095.242.206.6.238 1.265l.001.029c.03.7.041.934.041 2.73 0 1.801-.01 2.035-.041 2.736l-.001.02zm-.891-6.49a.933.933 0 11-1.867 0 .933.933 0 011.867 0zm-4.667 0A3.735 3.735 0 0016.267 20 3.735 3.735 0 0020 23.733 3.735 3.735 0 0023.733 20 3.735 3.735 0 0020 16.267zM18.133 20a1.867 1.867 0 103.735 0 1.867 1.867 0 00-3.735 0z" fill="#fff"/></mask><g mask="url(#a)"><path fill="#737373" d="M7.867 7.867h24.267v24.267H7.867z"/></g></svg>