<svg width="120" height="19" fill="none" xmlns="http://www.w3.org/2000/svg"><mask id="a" style="mask-type:luminance" maskUnits="userSpaceOnUse" x="0" y="0" width="20" height="19"><path fill-rule="evenodd" clip-rule="evenodd" d="M10 15.27L16.18 19l-1.64-7.03L20 7.24l-7.19-.61L10 0 7.19 6.63 0 7.24l5.46 4.73L3.82 19 10 15.27z" fill="#fff"/></mask><g mask="url(#a)"><path fill="#F9AD3D" d="M-3-3h26v26H-3z"/></g><mask id="b" style="mask-type:luminance" maskUnits="userSpaceOnUse" x="25" y="0" width="20" height="19"><path fill-rule="evenodd" clip-rule="evenodd" d="M35 15.27L41.18 19l-1.64-7.03L45 7.24l-7.19-.61L35 0l-2.81 6.63-7.19.61 5.46 4.73L28.82 19 35 15.27z" fill="#fff"/></mask><g mask="url(#b)"><path fill="#F9AD3D" d="M22-3h26v26H22z"/></g><mask id="c" style="mask-type:luminance" maskUnits="userSpaceOnUse" x="50" y="0" width="20" height="19"><path fill-rule="evenodd" clip-rule="evenodd" d="M60 15.27L66.18 19l-1.64-7.03L70 7.24l-7.19-.61L60 0l-2.81 6.63-7.19.61 5.46 4.73L53.82 19 60 15.27z" fill="#fff"/></mask><g mask="url(#c)"><path fill="#F9AD3D" d="M47-3h26v26H47z"/></g><mask id="d" style="mask-type:luminance" maskUnits="userSpaceOnUse" x="75" y="0" width="20" height="19"><path fill-rule="evenodd" clip-rule="evenodd" d="M95 7.24l-7.19-.62L85 0l-2.81 6.63-7.19.61 5.46 4.73L78.82 19 85 15.27 91.18 19l-1.63-7.03L95 7.24zM85 13.4V4.1l1.71 4.04 4.38.38-3.32 2.88 1 4.28L85 13.4z" fill="#fff"/></mask><g mask="url(#d)"><path fill="#F9AD3D" d="M72-3h26v26H72z"/></g><mask id="e" style="mask-type:luminance" maskUnits="userSpaceOnUse" x="100" y="0" width="20" height="19"><path fill-rule="evenodd" clip-rule="evenodd" d="M120 7.24l-7.19-.62L110 0l-2.81 6.63-7.19.61 5.46 4.73-1.64 7.03 6.18-3.73 6.18 3.73-1.63-7.03L120 7.24zm-10 6.16l-3.76 2.27 1-4.28-3.32-2.88 4.38-.38L110 4.1l1.71 4.04 4.38.38-3.32 2.88 1 4.28L110 13.4z" fill="#fff"/></mask><g mask="url(#e)"><path fill="#F9AD3D" d="M97-3h26v26H97z"/></g></svg>